PathFileType	4	(X/Y/Z)	E:/New_biomech_experiments/MICROGRAVITY MOCAP/Session 2024-06-22/Neeraj_Tpose_22_06_24.trc	
DataRate	CameraRate	NumFrames	NumMarkers	Units	OrigDataRate	OrigDataStartFrame	OrigNumFrames	
120.00	120.00	24	19	m	120.00	781	1560	
Frame#	Time	MarkerSet_RSHO			MarkerSet_RBAK			MarkerSet_LBHD			MarkerSet_RUPA			MarkerSet_PRSHO			MarkerSet_RWRB			MarkerSet_RELB			MarkerSet_RFRM			MarkerSet_CLAV			MarkerSet_RWRA			MarkerSet_STRN			MarkerSet_ARSHO			MarkerSet_RFHD			MarkerSet_LFHD			MarkerSet_DIA			MarkerSet_C7			MarkerSet_MRELB			MarkerSet_T10			MarkerSet_RBHD			
		X1	Y1	Z1	X2	Y2	Z2	X3	Y3	Z3	X4	Y4	Z4	X5	Y5	Z5	X6	Y6	Z6	X7	Y7	Z7	X8	Y8	Z8	X9	Y9	Z9	X10	Y10	Z10	X11	Y11	Z11	X12	Y12	Z12	X13	Y13	Z13	X14	Y14	Z14	X15	Y15	Z15	X16	Y16	Z16	X17	Y17	Z17	X18	Y18	Z18	X19	Y19	Z19	

781	6.500	-0.04104	1.57705	0.08656	-0.10703	1.37249	0.01455	-0.02913	1.71910	-0.12015	-0.02436	1.54702	0.26647	-0.09992	1.48267	0.07922	-0.06304	1.51312	0.69446	-0.03511	1.54695	0.40166	-0.02681	1.54774	0.53920	0.10983	1.48761	-0.07230	0.03660	1.50908	0.68813	0.14142	1.32419	-0.05419	0.07211	1.51900	0.08451	0.07977	1.81039	0.02113	0.09255	1.82472	-0.08088	0.07811	1.17612	0.10879	-0.09142	1.53189	-0.07184	0.02455	1.44199	0.40871	-0.10724	1.33832	-0.05398	-0.04894	1.71763	-0.01651 
782	6.508	-0.04105	1.57706	0.08654	-0.10703	1.37249	0.01454	-0.02913	1.71909	-0.12018	-0.02437	1.54703	0.26646	-0.09991	1.48267	0.07920	-0.06306	1.51313	0.69445	-0.03512	1.54696	0.40164	-0.02682	1.54774	0.53918	0.10983	1.48761	-0.07232	0.03657	1.50909	0.68811	0.14142	1.32420	-0.05420	0.07211	1.51901	0.08450	0.07977	1.81040	0.02109	0.09255	1.82470	-0.08092	0.07812	1.17613	0.10877	-0.09142	1.53189	-0.07185	0.02454	1.44200	0.40869	-0.10724	1.33832	-0.05398	-0.04895	1.71764	-0.01654 
783	6.517	-0.04105	1.57707	0.08653	-0.10703	1.37249	0.01454	-0.02914	1.71909	-0.12020	-0.02437	1.54703	0.26646	-0.09991	1.48268	0.07919	-0.06307	1.51314	0.69443	-0.03513	1.54697	0.40163	-0.02684	1.54774	0.53917	0.10982	1.48762	-0.07234	0.03655	1.50910	0.68809	0.14142	1.32420	-0.05422	0.07212	1.51902	0.08448	0.07978	1.81040	0.02105	0.09254	1.82468	-0.08096	0.07812	1.17613	0.10876	-0.09143	1.53188	-0.07187	0.02453	1.44201	0.40868	-0.10724	1.33832	-0.05399	-0.04895	1.71765	-0.01656 
784	6.525	-0.04105	1.57707	0.08651	-0.10703	1.37249	0.01453	-0.02915	1.71909	-0.12023	-0.02437	1.54701	0.26645	-0.09990	1.48268	0.07918	-0.06309	1.51315	0.69441	-0.03515	1.54698	0.40161	-0.02686	1.54774	0.53915	0.10981	1.48762	-0.07236	0.03653	1.50911	0.68807	0.14142	1.32421	-0.05424	0.07212	1.51902	0.08447	0.07979	1.81040	0.02101	0.09254	1.82468	-0.08101	0.07813	1.17613	0.10875	-0.09144	1.53188	-0.07188	0.02451	1.44201	0.40866	-0.10725	1.33831	-0.05400	-0.04896	1.71766	-0.01659 
785	6.533	-0.04105	1.57708	0.08650	-0.10703	1.37248	0.01452	-0.02916	1.71909	-0.12025	-0.02437	1.54698	0.26644	-0.09990	1.48268	0.07917	-0.06312	1.51316	0.69439	-0.03516	1.54698	0.40160	-0.02689	1.54774	0.53914	0.10980	1.48762	-0.07238	0.03652	1.50912	0.68806	0.14142	1.32421	-0.05426	0.07213	1.51903	0.08445	0.07979	1.81041	0.02097	0.09253	1.82467	-0.08105	0.07814	1.17614	0.10873	-0.09145	1.53187	-0.07190	0.02449	1.44201	0.40865	-0.10725	1.33831	-0.05401	-0.04897	1.71767	-0.01661 
786	6.542	-0.04105	1.57708	0.08649	-0.10703	1.37248	0.01451	-0.02917	1.71909	-0.12028	-0.02437	1.54698	0.26643	-0.09990	1.48268	0.07916	-0.06314	1.51316	0.69438	-0.03518	1.54699	0.40158	-0.02692	1.54775	0.53912	0.10979	1.48763	-0.07240	0.03651	1.50914	0.68806	0.14143	1.32422	-0.05428	0.07213	1.51904	0.08444	0.07980	1.81041	0.02093	0.09253	1.82468	-0.08109	0.07815	1.17614	0.10871	-0.09147	1.53187	-0.07191	0.02448	1.44202	0.40863	-0.10726	1.33831	-0.05402	-0.04898	1.71768	-0.01664 
787	6.550	-0.04105	1.57708	0.08647	-0.10703	1.37248	0.01450	-0.02918	1.71909	-0.12030	-0.02438	1.54700	0.26641	-0.09990	1.48268	0.07915	-0.06318	1.51317	0.69436	-0.03520	1.54699	0.40156	-0.02696	1.54775	0.53911	0.10978	1.48763	-0.07242	0.03650	1.50916	0.68806	0.14143	1.32423	-0.05431	0.07213	1.51905	0.08442	0.07980	1.81042	0.02090	0.09252	1.82469	-0.08113	0.07817	1.17615	0.10870	-0.09148	1.53187	-0.07193	0.02446	1.44203	0.40862	-0.10727	1.33831	-0.05403	-0.04898	1.71769	-0.01666 
788	6.558	-0.04105	1.57709	0.08646	-0.10703	1.37247	0.01449	-0.02919	1.71909	-0.12031	-0.02438	1.54702	0.26639	-0.09990	1.48268	0.07914	-0.06322	1.51317	0.69434	-0.03522	1.54700	0.40155	-0.02700	1.54776	0.53910	0.10977	1.48764	-0.07244	0.03649	1.50917	0.68806	0.14143	1.32424	-0.05433	0.07214	1.51906	0.08441	0.07980	1.81043	0.02086	0.09252	1.82470	-0.08117	0.07818	1.17615	0.10868	-0.09149	1.53186	-0.07194	0.02445	1.44203	0.40861	-0.10728	1.33831	-0.05405	-0.04899	1.71769	-0.01668 
789	6.567	-0.04106	1.57709	0.08645	-0.10703	1.37247	0.01448	-0.02920	1.71909	-0.12033	-0.02438	1.54700	0.26637	-0.09990	1.48268	0.07913	-0.06327	1.51318	0.69433	-0.03524	1.54700	0.40153	-0.02704	1.54777	0.53909	0.10975	1.48764	-0.07246	0.03645	1.50918	0.68805	0.14144	1.32425	-0.05436	0.07214	1.51906	0.08440	0.07980	1.81043	0.02083	0.09251	1.82472	-0.08120	0.07819	1.17616	0.10866	-0.09150	1.53186	-0.07195	0.02443	1.44204	0.40860	-0.10728	1.33830	-0.05406	-0.04900	1.71770	-0.01669 
790	6.575	-0.04106	1.57709	0.08644	-0.10702	1.37246	0.01447	-0.02922	1.71909	-0.12034	-0.02438	1.54697	0.26635	-0.09990	1.48268	0.07912	-0.06332	1.51318	0.69431	-0.03527	1.54701	0.40151	-0.02709	1.54779	0.53908	0.10974	1.48765	-0.07247	0.03639	1.50918	0.68802	0.14144	1.32426	-0.05438	0.07214	1.51907	0.08439	0.07979	1.81043	0.02079	0.09251	1.82473	-0.08122	0.07821	1.17617	0.10864	-0.09151	1.53185	-0.07196	0.02441	1.44205	0.40859	-0.10728	1.33830	-0.05407	-0.04900	1.71770	-0.01671 
791	6.583	-0.04107	1.57710	0.08643	-0.10702	1.37246	0.01446	-0.02924	1.71908	-0.12036	-0.02439	1.54697	0.26632	-0.09990	1.48268	0.07911	-0.06337	1.51318	0.69429	-0.03530	1.54701	0.40150	-0.02715	1.54781	0.53908	0.10973	1.48765	-0.07249	0.03632	1.50918	0.68800	0.14144	1.32427	-0.05440	0.07213	1.51908	0.08438	0.07978	1.81043	0.02076	0.09249	1.82473	-0.08124	0.07823	1.17617	0.10862	-0.09152	1.53185	-0.07197	0.02439	1.44207	0.40858	-0.10728	1.33829	-0.05408	-0.04901	1.71769	-0.01672 
792	6.592	-0.04108	1.57710	0.08642	-0.10702	1.37246	0.01445	-0.02926	1.71908	-0.12037	-0.02441	1.54699	0.26628	-0.09991	1.48268	0.07910	-0.06343	1.51319	0.69428	-0.03533	1.54701	0.40149	-0.02721	1.54784	0.53907	0.10971	1.48765	-0.07250	0.03625	1.50919	0.68798	0.14145	1.32428	-0.05442	0.07213	1.51908	0.08437	0.07977	1.81043	0.02073	0.09247	1.82474	-0.08126	0.07825	1.17618	0.10860	-0.09153	1.53185	-0.07198	0.02436	1.44208	0.40857	-0.10729	1.33829	-0.05409	-0.04902	1.71769	-0.01673 
793	6.600	-0.04109	1.57710	0.08640	-0.10702	1.37245	0.01444	-0.02928	1.71908	-0.12038	-0.02442	1.54699	0.26623	-0.09991	1.48268	0.07909	-0.06349	1.51320	0.69426	-0.03537	1.54702	0.40147	-0.02728	1.54788	0.53907	0.10970	1.48766	-0.07252	0.03619	1.50920	0.68796	0.14145	1.32428	-0.05444	0.07212	1.51909	0.08436	0.07975	1.81043	0.02071	0.09245	1.82473	-0.08128	0.07827	1.17618	0.10858	-0.09154	1.53185	-0.07199	0.02434	1.44209	0.40856	-0.10729	1.33828	-0.05410	-0.04904	1.71769	-0.01675 
794	6.608	-0.04110	1.57710	0.08639	-0.10702	1.37245	0.01443	-0.02930	1.71907	-0.12039	-0.02443	1.54698	0.26618	-0.09992	1.48267	0.07908	-0.06355	1.51321	0.69425	-0.03541	1.54703	0.40146	-0.02734	1.54792	0.53907	0.10968	1.48766	-0.07253	0.03613	1.50921	0.68795	0.14146	1.32429	-0.05446	0.07212	1.51909	0.08435	0.07972	1.81043	0.02069	0.09241	1.82472	-0.08131	0.07830	1.17619	0.10856	-0.09155	1.53184	-0.07200	0.02431	1.44211	0.40856	-0.10730	1.33828	-0.05411	-0.04905	1.71768	-0.01676 
795	6.617	-0.04111	1.57710	0.08638	-0.10702	1.37245	0.01442	-0.02932	1.71907	-0.12040	-0.02444	1.54697	0.26614	-0.09993	1.48267	0.07907	-0.06361	1.51322	0.69424	-0.03545	1.54704	0.40145	-0.02741	1.54795	0.53907	0.10967	1.48767	-0.07254	0.03608	1.50923	0.68794	0.14146	1.32430	-0.05448	0.07211	1.51910	0.08434	0.07969	1.81042	0.02067	0.09238	1.82471	-0.08133	0.07832	1.17619	0.10855	-0.09156	1.53184	-0.07201	0.02428	1.44212	0.40855	-0.10731	1.33827	-0.05413	-0.04907	1.71768	-0.01677 
796	6.625	-0.04113	1.57711	0.08637	-0.10702	1.37245	0.01441	-0.02934	1.71907	-0.12042	-0.02445	1.54695	0.26610	-0.09994	1.48267	0.07906	-0.06367	1.51324	0.69422	-0.03549	1.54705	0.40144	-0.02747	1.54797	0.53907	0.10966	1.48767	-0.07255	0.03602	1.50925	0.68794	0.14147	1.32431	-0.05450	0.07209	1.51910	0.08434	0.07965	1.81042	0.02065	0.09235	1.82471	-0.08134	0.07835	1.17620	0.10853	-0.09157	1.53184	-0.07202	0.02425	1.44214	0.40855	-0.10732	1.33827	-0.05414	-0.04909	1.71767	-0.01678 
797	6.633	-0.04115	1.57711	0.08636	-0.10703	1.37245	0.01440	-0.02937	1.71906	-0.12042	-0.02447	1.54695	0.26608	-0.09995	1.48267	0.07905	-0.06373	1.51325	0.69421	-0.03553	1.54706	0.40142	-0.02752	1.54799	0.53906	0.10964	1.48767	-0.07256	0.03597	1.50927	0.68793	0.14147	1.32432	-0.05451	0.07208	1.51911	0.08434	0.07960	1.81041	0.02063	0.09232	1.82471	-0.08135	0.07837	1.17620	0.10852	-0.09159	1.53184	-0.07203	0.02422	1.44215	0.40854	-0.10732	1.33826	-0.05415	-0.04911	1.71766	-0.01679 
798	6.642	-0.04117	1.57711	0.08634	-0.10703	1.37244	0.01439	-0.02939	1.71907	-0.12043	-0.02449	1.54695	0.26606	-0.09996	1.48267	0.07904	-0.06378	1.51326	0.69420	-0.03557	1.54707	0.40141	-0.02758	1.54802	0.53906	0.10963	1.48768	-0.07257	0.03593	1.50929	0.68792	0.14147	1.32433	-0.05452	0.07206	1.51911	0.08433	0.07956	1.81041	0.02062	0.09229	1.82470	-0.08135	0.07839	1.17621	0.10851	-0.09160	1.53184	-0.07205	0.02418	1.44217	0.40854	-0.10733	1.33826	-0.05417	-0.04913	1.71765	-0.01679 
799	6.650	-0.04119	1.57711	0.08633	-0.10704	1.37244	0.01438	-0.02941	1.71907	-0.12045	-0.02452	1.54695	0.26604	-0.09998	1.48266	0.07903	-0.06383	1.51327	0.69419	-0.03561	1.54708	0.40140	-0.02764	1.54804	0.53906	0.10961	1.48768	-0.07257	0.03588	1.50932	0.68792	0.14146	1.32433	-0.05454	0.07205	1.51912	0.08433	0.07952	1.81040	0.02062	0.09226	1.82469	-0.08135	0.07841	1.17622	0.10850	-0.09161	1.53184	-0.07206	0.02415	1.44218	0.40854	-0.10734	1.33826	-0.05419	-0.04915	1.71764	-0.01680 
800	6.658	-0.04121	1.57711	0.08632	-0.10705	1.37244	0.01436	-0.02943	1.71907	-0.12046	-0.02455	1.54695	0.26603	-0.09999	1.48266	0.07902	-0.06387	1.51328	0.69418	-0.03565	1.54709	0.40139	-0.02770	1.54808	0.53906	0.10960	1.48769	-0.07258	0.03584	1.50934	0.68791	0.14146	1.32434	-0.05454	0.07203	1.51913	0.08433	0.07949	1.81040	0.02062	0.09224	1.82469	-0.08134	0.07843	1.17622	0.10849	-0.09162	1.53183	-0.07208	0.02412	1.44220	0.40853	-0.10735	1.33826	-0.05421	-0.04917	1.71764	-0.01681 
801	6.667	-0.04124	1.57711	0.08631	-0.10707	1.37243	0.01435	-0.02945	1.71907	-0.12048	-0.02457	1.54695	0.26602	-0.10001	1.48266	0.07901	-0.06392	1.51329	0.69417	-0.03569	1.54710	0.40138	-0.02776	1.54811	0.53907	0.10959	1.48770	-0.07258	0.03580	1.50936	0.68791	0.14146	1.32436	-0.05455	0.07201	1.51913	0.08433	0.07946	1.81041	0.02064	0.09222	1.82471	-0.08132	0.07844	1.17623	0.10848	-0.09164	1.53183	-0.07209	0.02409	1.44222	0.40853	-0.10736	1.33826	-0.05423	-0.04920	1.71763	-0.01682 
802	6.675	-0.04127	1.57711	0.08630	-0.10708	1.37243	0.01433	-0.02948	1.71908	-0.12049	-0.02460	1.54694	0.26601	-0.10003	1.48265	0.07900	-0.06396	1.51329	0.69417	-0.03574	1.54710	0.40137	-0.02781	1.54815	0.53907	0.10957	1.48771	-0.07258	0.03576	1.50937	0.68791	0.14146	1.32437	-0.05456	0.07199	1.51914	0.08433	0.07944	1.81041	0.02066	0.09220	1.82472	-0.08131	0.07845	1.17623	0.10847	-0.09165	1.53183	-0.07210	0.02406	1.44224	0.40852	-0.10737	1.33826	-0.05425	-0.04922	1.71763	-0.01683 
803	6.683	-0.04129	1.57711	0.08630	-0.10710	1.37243	0.01432	-0.02950	1.71908	-0.12051	-0.02463	1.54694	0.26600	-0.10004	1.48265	0.07899	-0.06400	1.51330	0.69417	-0.03578	1.54712	0.40137	-0.02786	1.54817	0.53908	0.10956	1.48772	-0.07258	0.03571	1.50938	0.68791	0.14146	1.32438	-0.05457	0.07198	1.51914	0.08433	0.07942	1.81042	0.02068	0.09218	1.82472	-0.08130	0.07845	1.17624	0.10846	-0.09167	1.53183	-0.07211	0.02403	1.44225	0.40852	-0.10738	1.33826	-0.05427	-0.04925	1.71763	-0.01684 
804	6.692	-0.04132	1.57710	0.08629	-0.10711	1.37242	0.01430	-0.02952	1.71908	-0.12051	-0.02467	1.54693	0.26599	-0.10006	1.48264	0.07898	-0.06405	1.51331	0.69416	-0.03582	1.54713	0.40136	-0.02791	1.54820	0.53908	0.10954	1.48773	-0.07258	0.03567	1.50939	0.68791	0.14147	1.32440	-0.05458	0.07196	1.51915	0.08433	0.07939	1.81042	0.02070	0.09215	1.82470	-0.08129	0.07845	1.17625	0.10845	-0.09168	1.53183	-0.07212	0.02399	1.44226	0.40852	-0.10740	1.33825	-0.05430	-0.04927	1.71763	-0.01684 
